<svg xmlns="http://www.w3.org/2000/svg" viewBox="0 0 64 64" fill="none">
  <rect width="64" height="64" rx="12" fill="#3B82F6"/>
  <path d="M16 36 L20 28 L24 26 L40 26 L44 28 L48 36" stroke="white" stroke-width="2.5" fill="none" stroke-linecap="round"/>
  <path d="M14 36 L14 42 C14 43 15 44 16 44 L18 44 C19 44 20 43 20 42 L20 40" stroke="white" stroke-width="2.5" fill="none" stroke-linecap="round"/>
  <path d="M44 40 L44 42 C44 43 45 44 46 44 L48 44 C49 44 50 43 50 42 L50 36" stroke="white" stroke-width="2.5" fill="none" stroke-linecap="round"/>
  <circle cx="22" cy="40" r="3" fill="white"/>
  <circle cx="42" cy="40" r="3" fill="white"/>
  <path d="M24 26 L26 22 C26 20 27 19 28 19 L36 19 C37 19 38 20 38 22 L40 26" stroke="white" stroke-width="2.5" fill="none" stroke-linecap="round"/>
  <line x1="20" y1="36" x2="44" y2="36" stroke="white" stroke-width="2.5" stroke-linecap="round"/>
</svg>
